# xmcd CD database file generated by OrangeCD 6.3
#
# Track frame offsets:
#	150
#	19104
#	35481
#	49701
#	67459
#
# Disc length: 1063 seconds
#
# Revision: 0
# Processed by: cddbd v1.5.2PL0 Copyright (c) Steve Scherf et al.
# Submitted via: OrangeCD 6.3
#
DISCID=43042505
DTITLE=Octomutt - Please Betty
DYEAR=1900
DGENRE=
TTITLE0=Please Betty
TTITLE1=Current
TTITLE2=Henrietta
TTITLE3=St. Clair's Shore
TTITLE4=What Did You Expect?
EXTD=
EXTT0=
EXTT1=
EXTT2=
EXTT3=
EXTT4=
PLAYORDER=
